{
	"asset":{
		"generator":"Khronos glTF Blender I/O v4.3.47",
		"version":"2.0"
	},
	"scene":0,
	"scenes":[
		{
			"name":"Scene",
			"nodes":[
				3
			]
		}
	],
	"nodes":[
		{
			"mesh":0,
			"name":"Glowica",
			"translation":[
				0,
				0,
				1.1863996982574463
			]
		},
		{
			"children":[
				0
			],
			"mesh":1,
			"name":"Szyna"
		},
		{
			"children":[
				1
			],
			"mesh":2,
			"name":"Drukara"
		},
		{
			"children":[
				2
			],
			"mesh":3,
			"name":"Bed",
			"rotation":[
				-0.70710688829422,
				0,
				0,
				0.7071066498756409
			]
		}
	],
	"materials":[
		{
			"doubleSided":true,
			"name":"Scene_-_Root",
			"pbrMetallicRoughness":{
				"metallicFactor":0,
				"roughnessFactor":0.6000000238418579
			}
		}
	],
	"meshes":[
		{
			"name":"Object_4.001",
			"primitives":[
				{
					"attributes":{
						"POSITION":0,
						"NORMAL":1
					},
					"indices":2,
					"material":0
				},
				{
					"attributes":{
						"POSITION":3,
						"NORMAL":4
					},
					"indices":5
				}
			]
		},
		{
			"name":"Object_4",
			"primitives":[
				{
					"attributes":{
						"POSITION":6,
						"NORMAL":7
					},
					"indices":8,
					"material":0
				}
			]
		},
		{
			"name":"Object_12",
			"primitives":[
				{
					"attributes":{
						"POSITION":9,
						"NORMAL":10
					},
					"indices":11,
					"material":0
				}
			]
		},
		{
			"name":"Object_16.001",
			"primitives":[
				{
					"attributes":{
						"POSITION":12,
						"NORMAL":13
					},
					"indices":14,
					"material":0
				}
			]
		}
	],
	"accessors":[
		{
			"bufferView":0,
			"componentType":5126,
			"count":130590,
			"max":[
				189.6445770263672,
				241.92999267578125,
				338.7999572753906
			],
			"min":[
				113.15180206298828,
				101.12139892578125,
				212.60240173339844
			],
			"type":"VEC3"
		},
		{
			"bufferView":1,
			"componentType":5126,
			"count":130590,
			"type":"VEC3"
		},
		{
			"bufferView":2,
			"componentType":5125,
			"count":372270,
			"type":"SCALAR"
		},
		{
			"bufferView":3,
			"componentType":5126,
			"count":18487,
			"max":[
				157.15805053710938,
				177.84332275390625,
				270.18927001953125
			],
			"min":[
				136.47564697265625,
				155.34332275390625,
				213.88926696777344
			],
			"type":"VEC3"
		},
		{
			"bufferView":4,
			"componentType":5126,
			"count":18487,
			"type":"VEC3"
		},
		{
			"bufferView":5,
			"componentType":5123,
			"count":26115,
			"type":"SCALAR"
		},
		{
			"bufferView":6,
			"componentType":5126,
			"count":184036,
			"max":[
				395.8999938964844,
				252.92999267578125,
				301.6000061035156
			],
			"min":[
				-66,
				179.43519592285156,
				227.02127075195312
			],
			"type":"VEC3"
		},
		{
			"bufferView":7,
			"componentType":5126,
			"count":184036,
			"type":"VEC3"
		},
		{
			"bufferView":8,
			"componentType":5125,
			"count":485982,
			"type":"SCALAR"
		},
		{
			"bufferView":9,
			"componentType":5126,
			"count":666255,
			"max":[
				374.3978576660156,
				388.5241394042969,
				421
			],
			"min":[
				-33.12500762939453,
				-78.55136108398438,
				-9.238747793460789e-07
			],
			"type":"VEC3"
		},
		{
			"bufferView":10,
			"componentType":5126,
			"count":666255,
			"type":"VEC3"
		},
		{
			"bufferView":11,
			"componentType":5125,
			"count":1815270,
			"type":"SCALAR"
		},
		{
			"bufferView":12,
			"componentType":5126,
			"count":121249,
			"max":[
				291.8999938964844,
				323.1086120605469,
				102
			],
			"min":[
				38.09559631347656,
				34.70859909057617,
				51.5
			],
			"type":"VEC3"
		},
		{
			"bufferView":13,
			"componentType":5126,
			"count":121249,
			"type":"VEC3"
		},
		{
			"bufferView":14,
			"componentType":5125,
			"count":304410,
			"type":"SCALAR"
		}
	],
	"bufferViews":[
		{
			"buffer":0,
			"byteLength":1567080,
			"byteOffset":0,
			"target":34962
		},
		{
			"buffer":0,
			"byteLength":1567080,
			"byteOffset":1567080,
			"target":34962
		},
		{
			"buffer":0,
			"byteLength":1489080,
			"byteOffset":3134160,
			"target":34963
		},
		{
			"buffer":0,
			"byteLength":221844,
			"byteOffset":4623240,
			"target":34962
		},
		{
			"buffer":0,
			"byteLength":221844,
			"byteOffset":4845084,
			"target":34962
		},
		{
			"buffer":0,
			"byteLength":52230,
			"byteOffset":5066928,
			"target":34963
		},
		{
			"buffer":0,
			"byteLength":2208432,
			"byteOffset":5119160,
			"target":34962
		},
		{
			"buffer":0,
			"byteLength":2208432,
			"byteOffset":7327592,
			"target":34962
		},
		{
			"buffer":0,
			"byteLength":1943928,
			"byteOffset":9536024,
			"target":34963
		},
		{
			"buffer":0,
			"byteLength":7995060,
			"byteOffset":11479952,
			"target":34962
		},
		{
			"buffer":0,
			"byteLength":7995060,
			"byteOffset":19475012,
			"target":34962
		},
		{
			"buffer":0,
			"byteLength":7261080,
			"byteOffset":27470072,
			"target":34963
		},
		{
			"buffer":0,
			"byteLength":1454988,
			"byteOffset":34731152,
			"target":34962
		},
		{
			"buffer":0,
			"byteLength":1454988,
			"byteOffset":36186140,
			"target":34962
		},
		{
			"buffer":0,
			"byteLength":1217640,
			"byteOffset":37641128,
			"target":34963
		}
	],
	"buffers":[
		{
			"byteLength":38858768,
			"uri":"printer.bin"
		}
	]
}
